<svg width="25" height="24" viewBox="0 0 25 24" fill="none" xmlns="http://www.w3.org/2000/svg">
<path fill-rule="evenodd" clip-rule="evenodd" d="M8.23326 19.3246C8.23326 19.4242 8.11916 19.5034 7.97519 19.5034C7.81135 19.5183 7.69725 19.4391 7.69725 19.3246C7.69725 19.2254 7.81135 19.1462 7.95532 19.1462C8.10429 19.1313 8.23326 19.2105 8.23326 19.3246ZM6.68986 19.1015C6.65499 19.2008 6.75421 19.3149 6.90318 19.3446C7.03228 19.3945 7.18125 19.3446 7.21099 19.2454C7.24048 19.1462 7.14638 19.0321 6.99728 18.9874C6.86831 18.9526 6.72447 19.0023 6.68986 19.1015ZM8.88336 19.0172C8.73952 19.0517 8.64029 19.1461 8.65478 19.2604C8.66965 19.3595 8.79913 19.4242 8.94771 19.3893C9.09168 19.3545 9.19078 19.2604 9.17591 19.1611C9.16104 19.0667 9.02733 19.0023 8.88336 19.0172ZM12.1486 7.19656e-08C5.26543 7.19656e-08 0 5.22581 0 12.109C0 17.6126 3.46396 22.3223 8.41171 23.9798C9.04694 24.0939 9.27039 23.7019 9.27039 23.3794C9.27039 23.0716 9.25552 21.3743 9.25552 20.3324C9.25552 20.3324 5.78182 21.0766 5.0521 18.8533C5.0521 18.8533 4.48623 17.4092 3.67254 17.037C3.67254 17.037 2.53592 16.2579 3.75177 16.2728C3.75177 16.2728 4.98736 16.372 5.66733 17.553C6.75421 19.4686 8.57555 18.918 9.28526 18.5901C9.39936 17.7962 9.72217 17.2452 10.0793 16.9178C7.30509 16.61 4.50623 16.2081 4.50623 11.4342C4.50623 10.0696 4.88339 9.3845 5.67746 8.51094C5.54849 8.18852 5.12659 6.85857 5.80643 5.14146C6.84357 4.81878 9.23078 6.48127 9.23078 6.48127C10.2233 6.20333 11.2902 6.05937 12.3473 6.05937C13.4041 6.05937 14.4715 6.20333 15.4639 6.48127C15.4639 6.48127 17.8507 4.81403 18.8882 5.14146C19.5678 6.86357 19.1461 8.18852 19.0172 8.51094C19.8112 9.38962 20.2975 10.0742 20.2975 11.4342C20.2975 16.2231 17.3743 16.6053 14.6004 16.9178C15.0568 17.3099 15.4439 18.0541 15.4439 19.2208C15.4439 20.8931 15.429 22.9623 15.429 23.3693C15.429 23.692 15.6572 24.0841 16.2877 23.9701C21.2503 22.3223 24.615 17.6126 24.615 12.109C24.615 5.22581 19.0321 7.19656e-08 12.1486 7.19656e-08ZM4.82378 17.1162C4.75917 17.166 4.77404 17.2802 4.85839 17.3747C4.93801 17.4539 5.0521 17.4888 5.11672 17.424C5.18107 17.3747 5.1662 17.2602 5.08185 17.166C5.00223 17.0865 4.88814 17.0519 4.82378 17.1162ZM4.28778 16.7143C4.2529 16.7791 4.30278 16.8583 4.40187 16.908C4.48149 16.9574 4.58071 16.9425 4.6152 16.8732C4.65007 16.8088 4.60033 16.7292 4.5011 16.6798C4.40187 16.65 4.32265 16.665 4.28778 16.7143ZM5.89592 18.4812C5.8163 18.5455 5.84605 18.6945 5.96014 18.789C6.07424 18.9031 6.21821 18.9179 6.28295 18.8385C6.34718 18.7741 6.31744 18.6251 6.21821 18.5307C6.10924 18.4166 5.96014 18.4016 5.89592 18.4812ZM5.33004 17.7515C5.25043 17.8012 5.25043 17.9303 5.33004 18.0444C5.40927 18.1585 5.54336 18.2082 5.60811 18.1585C5.68733 18.0941 5.68733 17.9652 5.60811 17.8511C5.53824 17.7366 5.40927 17.6871 5.33004 17.7515Z" fill="#9F9FA0"/>
</svg>
