<svg width="26" height="24" viewBox="0 0 26 24" fill="none" xmlns="http://www.w3.org/2000/svg">
<path fill-rule="evenodd" clip-rule="evenodd" d="M6.3623 23.915C4.87012 23.85 4.05982 23.6126 3.52066 23.4116C2.80625 23.1455 2.29689 22.8288 1.76072 22.3166C1.22443 21.8043 0.892526 21.3171 0.615921 20.6339C0.40567 20.1181 0.157558 19.3431 0.0896431 17.9158C0.0148322 16.3728 0 15.9099 0 12.0012C0 8.09217 0.0162623 7.6301 0.0888614 6.08569C0.156777 4.65838 0.40645 3.88467 0.615139 3.36758C0.893306 2.68423 1.22521 2.19716 1.75994 1.68343C2.29546 1.1712 2.80482 0.853099 3.51988 0.588521C4.05904 0.387411 4.86934 0.14996 6.36153 0.0849973C7.97536 0.0141858 8.46 6.65696e-07 12.5453 6.65696e-07C16.6316 6.65696e-07 17.1148 0.0155547 18.7294 0.0849973C20.2216 0.14996 21.0303 0.38878 21.571 0.588521C22.2854 0.853099 22.7947 1.1712 23.331 1.68343C23.8671 2.19566 24.1976 2.68349 24.4758 3.36684C24.6859 3.88256 24.9341 4.65762 25.002 6.08493C25.0761 7.62934 25.0909 8.09155 25.0909 12.0005C25.0909 15.9078 25.0761 16.3714 25.002 17.9158C24.9341 19.3431 24.6845 20.1181 24.4758 20.6339C24.1976 21.3171 23.8665 21.8043 23.331 22.3166C22.7955 22.8288 22.2854 23.1455 21.571 23.4116C21.0319 23.6126 20.2216 23.85 18.7294 23.915C17.1162 23.9858 16.6316 24 12.5453 24C8.46 24 7.97536 23.9866 6.3623 23.915Z" fill="#9F9FA0"/>
<path fill-rule="evenodd" clip-rule="evenodd" d="M9.48545 11.6023C9.48545 9.99589 10.7875 8.69309 12.3939 8.69309C14.0005 8.69309 15.3034 9.99589 15.3034 11.6023C15.3034 13.2089 14.0005 14.5117 12.3939 14.5117C10.7875 14.5117 9.48545 13.2089 9.48545 11.6023ZM7.91258 11.6023C7.91258 14.0773 9.91874 16.0839 12.3939 16.0839C14.869 16.0839 16.8752 14.0773 16.8752 11.6023C16.8752 9.12748 14.869 7.12095 12.3939 7.12095C9.91874 7.12095 7.91258 9.12711 7.91258 11.6023ZM16.0053 6.94346C16.0053 7.52195 16.4747 7.99106 17.0527 7.99106C17.6311 7.99106 18.0999 7.52221 18.0999 6.94372C18.0999 6.36571 17.6314 5.89647 17.0534 5.89647C16.4754 5.89683 16.006 6.36533 16.0053 6.94346ZM8.86798 18.7065C8.01722 18.6674 7.55482 18.5258 7.24748 18.4061C6.84001 18.2475 6.54936 18.0586 6.24373 17.7534C5.93773 17.4481 5.74855 17.1573 5.59081 16.75C5.47094 16.443 5.32939 15.9803 5.29065 15.1295C5.24826 14.2096 5.23998 13.9331 5.23998 11.6026C5.23998 9.27183 5.24887 8.99629 5.29065 8.07562C5.32939 7.22486 5.47204 6.76318 5.59081 6.45487C5.74929 6.0474 5.93846 5.75663 6.24373 5.451C6.549 5.14549 6.8394 4.95619 7.24748 4.79844C7.55445 4.67857 8.01722 4.53666 8.86798 4.49805C9.78792 4.4559 10.0644 4.44725 12.3939 4.44725C14.7236 4.44725 15.0002 4.45627 15.9208 4.49842C16.7715 4.53703 17.2336 4.67967 17.5416 4.79844C17.9491 4.95619 18.2398 5.14609 18.5454 5.45136C18.851 5.75662 19.0395 6.04776 19.1983 6.45511C19.3178 6.76208 19.4597 7.22486 19.4985 8.07562C19.5405 8.99653 19.5491 9.27208 19.5491 11.6026C19.5491 13.9333 19.5405 14.2088 19.4985 15.1295C19.4597 15.9803 19.3171 16.443 19.1983 16.7503C19.0395 17.1577 18.8507 17.4485 18.5454 17.7534C18.2401 18.0583 17.9491 18.2475 17.5416 18.4063C17.2343 18.5258 16.7715 18.6677 15.9208 18.7065C15.0008 18.7486 14.7247 18.7571 12.3939 18.7571C10.0635 18.7571 9.78792 18.7486 8.86798 18.7065ZM8.79586 2.92799C7.86666 2.97038 7.23201 3.11751 6.67739 3.33325C6.10352 3.55605 5.61736 3.85511 5.13156 4.33981C4.64565 4.825 4.34769 5.31153 4.12501 5.88576C3.90916 6.44063 3.76176 7.07527 3.71962 8.00422C3.67637 8.93476 3.66675 9.23248 3.66675 11.6023C3.66675 13.9724 3.67637 14.27 3.71962 15.2006C3.76176 16.1298 3.90916 16.7641 4.12501 17.319C4.34769 17.8925 4.64601 18.3801 5.13156 18.8649C5.61699 19.3498 6.10279 19.6481 6.67739 19.8715C7.23298 20.0872 7.86666 20.2344 8.79586 20.2769C9.72677 20.3193 10.0241 20.3297 12.3939 20.3297C14.764 20.3297 15.0616 20.32 15.9919 20.2769C16.9211 20.2344 17.5558 20.0872 18.1103 19.8715C18.6843 19.6481 19.1708 19.3498 19.6566 18.8649C20.142 18.3798 20.4397 17.8925 20.6631 17.319C20.879 16.7641 21.0267 16.1295 21.0685 15.2006C21.1107 14.2693 21.1207 13.9724 21.1207 11.6023C21.1207 9.23248 21.1107 8.93476 21.0685 8.00422C21.026 7.07502 20.879 6.44038 20.6631 5.88576C20.4397 5.31226 20.1414 4.82573 19.6566 4.33981C19.1714 3.85438 18.6843 3.55605 18.111 3.33325C17.5558 3.11751 16.9211 2.96977 15.9925 2.92799C15.062 2.88547 14.7646 2.8751 12.3949 2.8751C10.0255 2.8751 9.72677 2.88474 8.79586 2.92799Z" fill="white"/>
</svg>
