<svg width="24" height="24" viewBox="0 0 24 24" fill="none" xmlns="http://www.w3.org/2000/svg">
<path fill-rule="evenodd" clip-rule="evenodd" d="M0 1.71929C0 0.770132 0.794364 -9.73818e-07 1.77387 -9.73818e-07H22.226C23.2059 -9.73818e-07 24 0.770132 24 1.71929V22.281C24 23.2301 23.2059 24 22.226 24H1.77387C0.794364 24 0 23.2305 0 22.2813V1.71929Z" fill="#9F9FA0"/>
<path fill-rule="evenodd" clip-rule="evenodd" d="M7.29336 20.0849V9.27975H3.70214V20.0849H7.29336ZM5.49845 7.80476C6.75044 7.80476 7.53014 6.97532 7.53014 5.93832C7.50655 4.87785 6.75044 4.07112 5.5223 4.07112C4.29314 4.07112 3.49036 4.87785 3.49036 5.93832C3.49036 6.97532 4.26955 7.80476 5.47499 7.80476H5.49845ZM9.28131 20.0849H12.8725V14.0514C12.8725 13.7291 12.8956 13.4056 12.9907 13.1753C13.2502 12.5298 13.8411 11.8615 14.8333 11.8615C16.1326 11.8615 16.6527 12.8526 16.6527 14.3052V20.0849H20.2435V13.8895C20.2435 10.5709 18.4722 9.0264 16.1095 9.0264C14.1722 9.0264 13.3213 10.1093 12.8487 10.8465H12.8725V9.28013H9.28131C9.32823 10.2939 9.28131 20.0849 9.28131 20.0849Z" fill="white"/>
</svg>
